<svg xmlns="http://www.w3.org/2000/svg" viewBox="0 0 48 48">
  <path fill="#4285F4" d="M24 9.5c3.54 0 6.7 1.22 9.19 3.6l6.85-6.85C35.6 2.37 30.1 0 24 0 14.62 0 6.44 5.38 2.56 13.22l7.98 6.19C12.33 13.09 17.74 9.5 24 9.5z"/>
  <path fill="#34A853" d="M46.08 24.55c0-1.64-.15-3.21-.43-4.73H24v9.01h12.46c-.54 2.92-2.17 5.39-4.62 7.04l7.19 5.59c4.21-3.89 6.65-9.63 6.65-16.91z"/>
  <path fill="#FBBC05" d="M10.54 28.41c-.48-1.42-.75-2.94-.75-4.41s.27-2.99.75-4.41L2.56 13.4C.9 16.65 0 20.2 0 24c0 3.8.9 7.35 2.56 10.6l7.98-6.19z"/>
  <path fill="#EA4335" d="M24 48c6.1 0 11.22-2 14.96-5.46l-7.19-5.59c-2.02 1.36-4.61 2.15-7.77 2.15-6.26 0-11.67-3.59-13.46-8.51l-7.98 6.19C6.44 42.62 14.62 48 24 48z"/>
</svg>
